<svg width="116" height="116" viewBox="0 0 116 116" fill="none" xmlns="http://www.w3.org/2000/svg">
<path d="M112.525 38.1438C112.875 37.4698 112.873 36.6481 112.48 35.9629C112.199 35.4743 111.757 35.1229 111.252 34.9477C108.385 28.3282 104.266 22.2419 99.0119 16.9874C88.0574 6.03291 73.4923 0 58 0C42.5077 0 27.9426 6.03291 16.9879 16.9879C6.03313 27.9429 0 42.5077 0 58C0 66.2439 1.7153 74.2223 4.96489 81.5367C3.83593 82.7907 3.21787 84.3957 3.21787 86.096C3.21787 87.9187 3.92769 89.6322 5.21637 90.9209C6.54675 92.2513 8.294 92.916 10.0413 92.916C10.5483 92.916 11.0549 92.8582 11.552 92.7461C13.1998 94.9415 15.0125 97.0365 16.9879 99.0119C19.7979 101.822 22.8495 104.302 26.0898 106.445C25.2982 108.821 25.8451 111.549 27.7328 113.437C29.0632 114.767 30.8105 115.432 32.5577 115.432C34.305 115.432 36.0524 114.767 37.3826 113.437L38.2562 112.563C44.5032 114.82 51.1605 116 58 116C73.4923 116 88.0574 109.967 99.0121 99.0121C109.967 88.0571 116 73.4923 116 58C116 51.1195 114.807 44.4232 112.525 38.1438ZM4.54892 58C4.54892 28.5272 28.5269 4.54892 58 4.54892C61.4549 4.54892 64.8315 4.88537 68.1049 5.51566L60.1519 13.4685C59.2622 13.5466 58.437 13.647 58 13.647C33.5437 13.647 13.647 33.5437 13.647 58C13.647 62.4921 14.3212 66.8289 15.5689 70.9184L8.45191 78.0354C5.93866 71.8443 4.54892 65.0821 4.54892 58ZM49.9851 30.622L50.0474 31.6277C50.226 34.5075 49.1582 37.3291 47.118 39.3693L19.2746 67.2125C18.5706 64.2545 18.1959 61.1705 18.1959 58C18.1959 36.9485 34.624 19.6645 55.3329 18.2874L54.2382 19.3822C51.2763 22.344 49.7262 26.441 49.9851 30.622ZM8.43288 87.7042C8.00332 87.2746 7.76679 86.7037 7.76679 86.096C7.76679 85.4884 8.00332 84.9172 8.43288 84.4876L50.3345 42.5863C53.2963 39.6242 54.8467 35.5273 54.5875 31.3465L54.5252 30.3408C54.3469 27.461 55.4145 24.6394 57.4549 22.5992L73.235 6.81953C73.3016 6.75315 73.3614 6.68246 73.418 6.61019L73.851 6.94845C75.2736 7.39115 76.6706 7.89185 78.0395 8.44784L61.8828 24.6047C60.9947 25.4928 60.9947 26.9331 61.8828 27.8214C62.3269 28.2655 62.9092 28.4875 63.4912 28.4875C64.0732 28.4875 64.6555 28.2653 65.0996 27.8214L82.0405 10.8804C82.1744 10.7465 82.2857 10.5988 82.3793 10.4436C83.8014 11.1759 85.1857 11.9709 86.5308 12.8234L85.2575 14.0969C85.2575 14.0969 85.2575 14.0969 85.2573 14.0969L68.3163 31.0379C67.4282 31.9261 67.4282 33.3663 68.3163 34.2547C68.7604 34.6987 69.3426 34.9208 69.9247 34.9208C70.5067 34.9208 71.089 34.6985 71.533 34.2547L90.3244 15.4631C97.2862 20.7663 102.911 27.7356 106.602 35.7722L100.094 37.4854C89.0017 40.4054 78.8519 46.2357 70.7417 54.346L61.4508 63.6371C59.6328 65.455 58.6985 67.9685 58.8872 70.5325C58.979 71.7764 58.5256 72.9955 57.6438 73.8775L38.7189 92.8023C33.3353 89.8082 28.7157 85.6055 25.2295 80.5584L56.7684 49.0195C58.8086 46.9791 61.6307 45.914 64.5105 46.0896L65.516 46.1517C69.6967 46.4125 73.7937 44.8605 76.7558 41.8987L94.9079 23.7465C95.7961 22.8583 95.7961 21.4181 94.9079 20.5297C94.0198 19.6418 92.5796 19.6418 91.6912 20.5297L73.539 38.6819C71.499 40.7223 68.6779 41.7885 65.7969 41.6118L64.7914 41.5498C60.6118 41.2887 56.5137 42.8409 53.5517 45.8028L11.6496 87.7042C10.7631 88.5911 9.3201 88.5907 8.43288 87.7042ZM15.4654 90.3219L21.9655 83.822C25.5374 88.7919 30.1097 92.9935 35.3863 96.1341L28.7861 102.734C23.6706 99.3814 19.1631 95.1766 15.4654 90.3219ZM34.1663 110.22C33.2793 111.108 31.8363 111.107 30.9496 110.221C30.0628 109.334 30.0628 107.891 30.9496 107.004L60.8601 77.0938C62.6781 75.2756 63.6126 72.7621 63.4237 70.1981C63.3319 68.9545 63.7853 67.7349 64.6673 66.8532L73.9579 57.5623C81.4995 50.0207 90.9374 44.5993 101.251 41.8844L102.95 41.4371L34.1663 110.22ZM58 111.451C52.3772 111.451 46.9555 110.576 41.8615 108.959L49.322 101.498C52.1293 102.058 55.0307 102.353 58.0002 102.353C66.5908 102.353 74.9306 99.8823 82.118 95.2086C89.1159 90.6581 94.6784 84.2667 98.2037 76.7256C98.7357 75.5876 98.2448 74.2339 97.1067 73.7019C95.9683 73.1695 94.6148 73.6609 94.083 74.7989C87.549 88.774 73.3856 97.8039 58 97.8039C56.4084 97.8039 54.839 97.7078 53.2961 97.5241L108.958 41.8626C110.575 46.9567 111.451 52.3774 111.451 57.9998C111.451 87.4728 87.4731 111.451 58 111.451Z" fill="#AEAEAE"/>
</svg>
